<?xml version="1.0" encoding="UTF-8"?>
<svg xmlns="http://www.w3.org/2000/svg" id="a" width="865.76" height="682.89" viewBox="0 0 865.76 682.89">
  <path d="M648.57,640.52c-.47,4.7-2.12,9.11-6.82,11.88-3.14,1.85-7.59,3-14,2.89-15.94-.21-45.93-11.61-45.93-11.61l-28.07-15.52,14.6-23.1,4-6.27,10.32,2.32s8.55,4.84,17.14,8.7,29.47,4.71,36.82,10.62,12.74,12.34,11.94,20.09Z" fill="#202f92" stroke="#002346" stroke-miterlimit="10"></path>
  <path d="M648.57,640.52c-.47,4.7-2.12,9.11-6.82,11.88,1.35-4.62,1.07-9.56-.79-14-3.13-7-13.34-13.25-26.77-14.28s-23.69-7.31-29.07-10.12c-4.2-2.18-13.06-6.94-16.75-8.92l4-6.27,10.32,2.32s8.55,4.84,17.14,8.7,29.47,4.71,36.82,10.62,12.72,12.32,11.92,20.07Z" fill="#fff" stroke="#002346" stroke-miterlimit="10"></path>
  <g id="b">
    <path d="M167.14,264h-8.5c-18.99,0-34.39,15.4-34.39,34.39h0v188.71c0,18.99,15.4,34.39,34.39,34.39h116.61c18.99,0,34.39-15.4,34.39-34.39h0" fill="none" stroke="#002346" stroke-linecap="round" stroke-linejoin="round"></path>
    <path d="M300.14,85.94V48.66c0-11.61,9.39-21.03,21-21.06h151.65c11.63,0,21.06,9.43,21.06,21.06h0" fill="none" stroke="#002346" stroke-linecap="round" stroke-linejoin="round"></path>
  </g>
  <rect x="153.01" y="101.25" width="567" height="352" fill="#e6e7e8" stroke="#002346" stroke-miterlimit="10"></rect>
  <rect x="153.01" y="101.25" width="567" height="36" fill="#202f92" stroke="#002346" stroke-miterlimit="10"></rect>
  <rect x="166.51" y="151.25" width="541" height="289.5" fill="#fff" stroke="#002346" stroke-miterlimit="10"></rect>
  <g>
    <path d="M183.11,119.24c0,3.41-2.75,6.17-6.16,6.18-3.41,0-6.17-2.75-6.18-6.16,0-3.41,2.75-6.17,6.16-6.18,0,0,.01,0,.02,0,3.4,0,6.16,2.76,6.16,6.16h0Z" fill="#fff" stroke="#002346" stroke-miterlimit="10"></path>
    <path d="M209.17,119.24c0,3.4-2.76,6.16-6.16,6.16-3.4,0-6.16-2.76-6.16-6.16,0-3.4,2.76-6.16,6.16-6.16s6.16,2.76,6.16,6.16h0Z" fill="#fff" stroke="#002346" stroke-miterlimit="10"></path>
    <circle cx="229.07" cy="119.24" r="6.16" fill="#fff" stroke="#002346" stroke-miterlimit="10"></circle>
  </g>
  <rect x="198.01" y="241.25" width="205" height="268" fill="#fff" stroke="#002346" stroke-miterlimit="10"></rect>
  <rect x="198.01" y="241.25" width="205" height="31" fill="#eb3367" stroke="#002346" stroke-miterlimit="10"></rect>
  <rect x="216.82" y="288.07" width="50.46" height="8.47" fill="#e6e7e8" stroke="#002346" stroke-miterlimit="10"></rect>
  <rect x="216.82" y="363.95" width="50.46" height="8.47" fill="#e6e7e8" stroke="#002346" stroke-miterlimit="10"></rect>
  <rect x="216.82" y="432.77" width="50.46" height="8.47" fill="#e6e7e8" stroke="#002346" stroke-miterlimit="10"></rect>
  <rect x="216.82" y="309.04" width="143.31" height="6.21" fill="#fff" stroke="#002346" stroke-miterlimit="10"></rect>
  <rect x="216.82" y="320.91" width="117.47" height="6.05" fill="#fff" stroke="#002346" stroke-miterlimit="10"></rect>
  <rect x="216.82" y="332.59" width="132.85" height="6.05" fill="#fff" stroke="#002346" stroke-miterlimit="10"></rect>
  <rect x="216.82" y="344.26" width="132.85" height="6.05" fill="#fff" stroke="#002346" stroke-miterlimit="10"></rect>
  <rect x="216.82" y="377.85" width="143.31" height="6.21" fill="#fff" stroke="#002346" stroke-miterlimit="10"></rect>
  <rect x="216.82" y="389.72" width="117.47" height="6.05" fill="#fff" stroke="#002346" stroke-miterlimit="10"></rect>
  <rect x="216.82" y="401.4" width="132.85" height="6.05" fill="#fff" stroke="#002346" stroke-miterlimit="10"></rect>
  <rect x="216.82" y="453.4" width="143.31" height="6.21" fill="#fff" stroke="#002346" stroke-miterlimit="10"></rect>
  <rect x="216.82" y="465.29" width="117.47" height="6.05" fill="#fff" stroke="#002346" stroke-miterlimit="10"></rect>
  <rect x="216.82" y="476.97" width="132.85" height="6.05" fill="#fff" stroke="#002346" stroke-miterlimit="10"></rect>
  <rect x="373.01" y="59.75" width="260.5" height="140" fill="#fff" stroke="#002346" stroke-miterlimit="10"></rect>
  <rect x="662.43" y="268.79" width="79.07" height="56.19" rx="11.84" ry="11.84" fill="#eb3367" stroke="#002346" stroke-miterlimit="10"></rect>
  <path d="M510.05,617.29s-45.47,13-51.83,15.29c-5.77,2-21.42,7.53-33.16,5.82-1.13-.16-2.26-.4-3.36-.72-11.9-3.55-17.25-6.86-18.82-14.34s4.36-13,10.07-16.52,36.67-7.22,36.67-7.22l7.48,2.2h0l52.95,15.49Z" fill="#202f92" stroke="#002346" stroke-miterlimit="10"></path>
  <path d="M425.06,638.39c-1.13-.16-2.26-.4-3.36-.72-11.9-3.55-17.25-6.86-18.82-14.34s4.36-13,10.07-16.52,36.67-7.22,36.67-7.22l7.48,2.2c-6.78,3.13-32,4.84-37.5,8s-8.15,9.13-4.91,17.25c1.74,4.25,6.39,8.41,10.37,11.35Z" fill="#fff" stroke="#002346" stroke-miterlimit="10"></path>
  <path d="M595.01,393.36c-1.99-2.4-4.56-4.26-7.48-5.37l-43.35-16.49-.6-.23s.17-1.26,.31-3.14c.3-3.79,.46-10-1.33-12.06-2.65-3.13-10.15-.5-17.47-3.86s-20.86,2.65-20.86,2.65c0,0-9.78-1.8-14.11,5.26-2.19,5.69-1.44,14.11-1.44,14.11l-.9,.32c-5.66,2.11-36.45,13.7-43,18.36-7.2,5.1-15.17,57.42-17.72,72.79s-7.11,29.22-4.8,34.5,35.39,30.77,54.43,37.34,86.55,4.7,86.55,4.7c0,0,1.09-.29,3-.92,10.55-3.39,45.96-16.59,68.24-46.65,3.43-4.63,4.35-10.66,2.5-16.11-6.12-18.12-22.11-61.25-41.97-85.2Zm-131.67,84.21c-3.5,2.48-1.57,12.07-1.57,12.07l-5.94-5.23,14.92-36.71,6.37,28.22s-10.29-.79-13.78,1.67v-.02Zm119.43,23.32c-1.65,.84,4.7-16.8,1.69-20.8s-12.09-3.62-12.09-3.62l.77-4.81,5.38-27.6h0c.87-1.03,2.51-.89,3.18,.29,4.36,7.6,17.63,31.12,20.39,40.42,0,.05-20.16,16.14-19.32,16.14v-.02Z" fill="#202f92" stroke="#002346" stroke-miterlimit="10"></path>
  <path d="M572.37,608.39l-10.19,26.76s-26-6.56-59.29-13.38c-34.83-7.14-71.2-16.37-90.06-49.48-2.29-4-3.83-8.79-2.75-13.31,2.72-11.43,17.6-14.54,27.4-15.68,6.16-.65,12.35-.99,18.55-1,3.14,0,13.56-1.71,16.09,.16,3.79,2.77,7.84,5.17,12.09,7.17,5.57,2.36,86.83-2.12,86.83-2.12,1.41-3.08,2.28-6.39,2.55-9.77,12.79-6.49,42.34-12,54.89-9.55,19.65,3.73,31.11,15.2,28.93,27.2s-45.58,44.23-85.04,53Z" fill="#eb3367" stroke="#002346" stroke-miterlimit="10"></path>
  <path d="M522.38,585.02s13.21-3.05,31-18.84c1.49-1.32,3.04-2.57,4.63-3.78,7.66-5.82,27.55-20.35,35.52-20.48" fill="none" stroke="#002346" stroke-linecap="round" stroke-linejoin="round"></path>
  <path d="M497.77,342.95l1.37,15c.83,9.31,8.65,16.44,18,16.4h0c9.56,.01,17.47-7.45,18-17l.76-13.38-38.13-1.02Z" fill="#f1b2c0" stroke="#002346" stroke-miterlimit="10"></path>
  <ellipse cx="550.01" cy="315.75" rx="6" ry="7.5" fill="#f1b2c0" stroke="#002346" stroke-miterlimit="10"></ellipse>
  <path d="M549.51,303.25s8.82-15.27,4.16-33.64l-17.76,4.37s13.1,11.26,13.6,29.26Z" fill="#002346" stroke="#002346" stroke-miterlimit="10"></path>
  <rect x="486.51" y="271.75" width="63" height="87" rx="31.5" ry="31.5" fill="#f1b2c0" stroke="#002346" stroke-miterlimit="10"></rect>
  <path d="M539.81,256.46c-9.15,3.45-18.1-2.48-27.34-3.47-7.84-.86-17.61,.13-21.72,8,0,0-14.11,1.67-20.38,13.33s5.6,27.81,5.6,27.81c0,0-1.21,2.55,.85,8.82,1.46,4.43,5.23,7.71,9.8,8.64h0c1.99-.31,3.8-1.29,5.15-2.76,.31-.34,.56-.73,.75-1.14,.66-1.38,1.09-2.86,1.26-4.39,.58-3.34,.87-6.71,.87-10.1-.07-1.32,.06-2.65,.36-3.94,.47-1.3,1.2-2.49,2.14-3.5,2.21-2.6,4.89-4.79,7-7.49,2.29-2.57,3.42-5.98,3.13-9.41,7.94,6.55,17.9,9.99,28.04,9.83,9.57-.15,17.69-7.52,18.34-17.08,.02-.35,.04-.72,.05-1.09,0,0-1.09-14.86-13.9-12.07Z" fill="#002346" stroke="#002346" stroke-miterlimit="10"></path>
  <ellipse cx="486.51" cy="315.75" rx="6" ry="7.5" fill="#f1b2c0" stroke="#002346" stroke-miterlimit="10"></ellipse>
  <line x1="470.75" y1="447.71" x2="462.91" y2="416.63" fill="none" stroke="#002346" stroke-linecap="round" stroke-linejoin="round"></line>
  <line x1="581.7" y1="444.35" x2="568.37" y2="421.97" fill="none" stroke="#002346" stroke-linecap="round" stroke-linejoin="round"></line>
  <path d="M582.71,551.91h-119.41c-1.54,0-2.8-1-2.8-2.24h0c0-1.24,1.25-2.24,2.8-2.24h119.41c1.54,0,2.8,1,2.8,2.24h0c0,1.24-1.25,2.24-2.8,2.24Z" fill="#e6e7e8" stroke="#002346" stroke-miterlimit="10"></path>
  <rect x="460.51" y="475.75" width="125" height="72" rx="3.74" ry="3.74" fill="#fff" stroke="#002346" stroke-miterlimit="10"></rect>
  <path d="M460.51,561.13s29.44-5.2,57.22,20.71c0,0,29.52,21.95,54.65,26.93" fill="none" stroke="#002346" stroke-linecap="round" stroke-linejoin="round"></path>
  <g>
    <path d="M229.11,256.74c0,3.41-2.75,6.17-6.16,6.18-3.41,0-6.17-2.75-6.18-6.16,0-3.41,2.75-6.17,6.16-6.18,0,0,.01,0,.02,0,3.4,0,6.16,2.76,6.16,6.16h0Z" fill="#fff" stroke="#002346" stroke-miterlimit="10"></path>
    <path d="M255.17,256.74c0,3.4-2.76,6.16-6.16,6.16-3.4,0-6.16-2.76-6.16-6.16,0-3.4,2.76-6.16,6.16-6.16s6.16,2.76,6.16,6.16h0Z" fill="#fff" stroke="#002346" stroke-miterlimit="10"></path>
    <circle cx="275.07" cy="256.74" r="6.16" fill="#fff" stroke="#002346" stroke-miterlimit="10"></circle>
  </g>
  <g>
    <line x1="695.73" y1="316.93" x2="707.9" y2="278.21" fill="none" stroke="#002346" stroke-linecap="round" stroke-linejoin="round"></line>
    <polyline points="712.01 286.29 727.93 296.77 714.15 308.85" fill="none" stroke="#002346" stroke-linecap="round" stroke-linejoin="round"></polyline>
    <polyline points="692.93 308.85 677.01 298.36 690.79 286.29" fill="none" stroke="#002346" stroke-linecap="round" stroke-linejoin="round"></polyline>
  </g>
  <rect x="373.01" y="59.75" width="260.5" height="26.5" fill="#eb3367" stroke="#002346" stroke-miterlimit="10"></rect>
  <path d="M394.65,77.01c-1.47,1.47-3.85,1.47-5.32,0s-1.47-3.85,0-5.32c1.47-1.47,3.85-1.47,5.31,0h0c1.46,1.47,1.46,3.85,0,5.32Z" fill="#fff" stroke="#002346" stroke-miterlimit="10"></path>
  <path d="M412.09,77.01c-1.47,1.47-3.85,1.47-5.32,0s-1.47-3.85,0-5.32c1.47-1.47,3.85-1.47,5.31,0h0c1.46,1.47,1.46,3.85,0,5.32Z" fill="#fff" stroke="#002346" stroke-miterlimit="10"></path>
  <path d="M429.53,77.01c-1.47,1.47-3.85,1.47-5.32,0s-1.47-3.85,0-5.32c1.47-1.47,3.85-1.47,5.31,0h0c1.46,1.47,1.46,3.85,0,5.32Z" fill="#fff" stroke="#002346" stroke-miterlimit="10"></path>
  <rect x="389.99" y="102.81" width="85.12" height="73.58" rx="6.99" ry="6.99" fill="none" stroke="#002346" stroke-linecap="round" stroke-linejoin="round"></rect>
  <rect x="488.26" y="102.81" width="97.96" height="5.17" fill="#e6e7e8" stroke="#002346" stroke-miterlimit="10"></rect>
  <rect x="488.26" y="113.52" width="75.15" height="5.16" fill="#e6e7e8" stroke="#002346" stroke-miterlimit="10"></rect>
  <rect x="488.26" y="124.18" width="111.89" height="5.22" fill="#e6e7e8" stroke="#002346" stroke-miterlimit="10"></rect>
  <rect x="488.26" y="134.58" width="95.28" height="5.22" fill="#e6e7e8" stroke="#002346" stroke-miterlimit="10"></rect>
</svg>
